<?xml version="1.0" standalone="no"?><!DOCTYPE svg PUBLIC "-//W3C//DTD SVG 1.1//EN" "http://www.w3.org/Graphics/SVG/1.1/DTD/svg11.dtd"><svg class="icon" width="200px" height="160.00px" viewBox="0 0 1280 1024" version="1.1" xmlns="http://www.w3.org/2000/svg"><path fill="#333333" d="M1184 160v96h-64V160h-96V96h96V0h64v96h96v64h-96z m-368 288a112 112 0 1 1 0-224 112 112 0 0 1 0 224z m0-160a48 48 0 1 0 0 96 48 48 0 0 0 0-96zM64 224v418.272l238.592-238.592a64 64 0 0 1 90.496 0l290.752 290.752 130.752-130.752a64 64 0 0 1 90.496 0L1120 778.592V352h64v581.088l-0.48-0.448A95.744 95.744 0 0 1 1088 1024H96a96 96 0 0 1-96-96V192a96 96 0 0 1 96-96h864v64H128a64 64 0 0 0-64 64z m0 672a64 64 0 0 0 64 64h928a64 64 0 0 0 64-64v-26.912l-237.536-237.504a31.968 31.968 0 0 0-45.248 0L700.768 768h-90.496l28.32-28.32-268.128-268.096a31.968 31.968 0 0 0-45.248 0L64 732.768V896z" /></svg>